   <svg className="w-8 h-8" viewBox="0 0 32 32" fill="none">
          <defs>
            <linearGradient id="habitGradient" x1="0%" y1="0%" x2="100%" y2="100%">
              <stop offset="0%" stopColor="#6366F1" />
              <stop offset="100%" stopColor="#8B5CF6" />
            </linearGradient>
            <linearGradient id="accentGradient" x1="0%" y1="0%" x2="100%" y2="100%">
              <stop offset="0%" stopColor="#F59E0B" />
              <stop offset="100%" stopColor="#EF4444" />
            </linearGradient>
            <clipPath id="hexClip">
              <path d="M16 2 L28 9 L28 23 L16 30 L4 23 L4 9 Z"/>
            </clipPath>
          </defs>
          
          {/* Main hexagonal background */}
          <path d="M16 2 L28 9 L28 23 L16 30 L4 23 L4 9 Z" 
                fill="url(#habitGradient)" opacity="0.9"/>
          
          {/* Inner hexagon with pattern */}
          <path d="M16 6 L24 10 L24 20 L16 24 L8 20 L8 10 Z" 
                fill="none" stroke="white" strokeWidth="1" opacity="0.8"/>
          
          {/* Central habit tracker visualization */}
          <g transform="translate(16, 16)">
            {/* 7-day week grid */}
            <g opacity="0.9">
              {/* Row 1 */}
              <rect x="-9" y="-6" width="3" height="3" fill="#10B981" rx="0.5"/>
              <rect x="-6" y="-6" width="3" height="3" fill="#10B981" rx="0.5"/>
              <rect x="-3" y="-6" width="3" height="3" fill="#F59E0B" rx="0.5"/>
              <rect x="0" y="-6" width="3" height="3" fill="#EF4444" rx="0.5"/>
              <rect x="3" y="-6" width="3" height="3" fill="#6B7280" rx="0.5"/>
              <rect x="6" y="-6" width="3" height="3" fill="#6B7280" rx="0.5"/>
              <rect x="9" y="-6" width="3" height="3" fill="#6B7280" rx="0.5"/>
              
              {/* Row 2 */}
              <rect x="-9" y="-3" width="3" height="3" fill="#10B981" rx="0.5"/>
              <rect x="-6" y="-3" width="3" height="3" fill="#10B981" rx="0.5"/>
              <rect x="-3" y="-3" width="3" height="3" fill="#10B981" rx="0.5"/>
              <rect x="0" y="-3" width="3" height="3" fill="#F59E0B" rx="0.5"/>
              <rect x="3" y="-3" width="3" height="3" fill="#EF4444" rx="0.5"/>
              <rect x="6" y="-3" width="3" height="3" fill="#6B7280" rx="0.5"/>
              <rect x="9" y="-3" width="3" height="3" fill="#6B7280" rx="0.5"/>
              
              {/* Row 3 */}
              <rect x="-9" y="0" width="3" height="3" fill="#10B981" rx="0.5"/>
              <rect x="-6" y="0" width="3" height="3" fill="#10B981" rx="0.5"/>
              <rect x="-3" y="0" width="3" height="3" fill="#10B981" rx="0.5"/>
              <rect x="0" y="0" width="3" height="3" fill="#10B981" rx="0.5"/>
              <rect x="3" y="0" width="3" height="3" fill="#F59E0B" rx="0.5"/>
              <rect x="6" y="0" width="3" height="3" fill="#EF4444" rx="0.5"/>
              <rect x="9" y="0" width="3" height="3" fill="#6B7280" rx="0.5"/>
              
              {/* Row 4 */}
              <rect x="-9" y="3" width="3" height="3" fill="#10B981" rx="0.5"/>
              <rect x="-6" y="3" width="3" height="3" fill="#10B981" rx="0.5"/>
              <rect x="-3" y="3" width="3" height="3" fill="#10B981" rx="0.5"/>
              <rect x="0" y="3" width="3" height="3" fill="#10B981" rx="0.5"/>
              <rect x="3" y="3" width="3" height="3" fill="#10B981" rx="0.5"/>
              <rect x="6" y="3" width="3" height="3" fill="#F59E0B" rx="0.5"/>
              <rect x="9" y="3" width="3" height="3" fill="#EF4444" rx="0.5"/>
            </g>
          </g>
          
          {/* Decorative corner elements */}
          <g opacity="0.7">
            {/* Top corners */}
            <circle cx="8" cy="8" r="1.5" fill="url(#accentGradient)"/>
            <circle cx="24" cy="8" r="1.5" fill="url(#accentGradient)"/>
            
            {/* Bottom corners */}
            <circle cx="8" cy="24" r="1.5" fill="url(#accentGradient)"/>
            <circle cx="24" cy="24" r="1.5" fill="url(#accentGradient)"/>
          </g>
          
          {/* Central highlight */}
          <circle cx="16" cy="16" r="2" fill="white" opacity="0.6"/>
          
          {/* Outer glow */}
          <path d="M16 2 L28 9 L28 23 L16 30 L4 23 L4 9 Z" 
                fill="none" stroke="url(#habitGradient)" strokeWidth="0.5" opacity="0.4"/>
        </svg>